<?xml version="1.0" encoding="utf-8"?>
<!-- Generator: Adobe Illustrator 26.0.1, SVG Export Plug-In . SVG Version: 6.00 Build 0)  -->
<svg version="1.1" id="Calque_1" xmlns="http://www.w3.org/2000/svg" xmlns:xlink="http://www.w3.org/1999/xlink" x="0px" y="0px"
	 viewBox="0 0 150 150" style="enable-background:new 0 0 150 150;" xml:space="preserve">
<style type="text/css">
	.st0{fill:#47444B;}
	.st1{fill:#FFB000;}
	.st2{fill:#64616C;}
</style>
<g>
	<polygon class="st0" points="125.7,66.4 102.1,42.8 96.4,37.1 76.1,16.9 26.6,66.4 9.7,66.4 9.7,83.3 50.2,123.8 55.9,129.5 
		76.1,149.8 142.6,83.3 142.6,66.4 	"/>
	<polygon class="st1" points="15.4,66.4 35.6,86.6 55.9,106.9 87.1,75.7 66.9,55.4 96.4,25.9 76.1,5.6 	"/>
	<polygon class="st2" points="66.9,55.4 87.1,75.7 55.9,106.9 76.1,127.1 136.9,66.4 116.6,46.1 96.4,25.9 	"/>
	<path class="st0" d="M9.7,66.4l40.5,40.5l5.7,5.7l20.3,20.3l66.5-66.5l-40.5-40.5l-5.7-5.7L76.1-0.1L9.7,66.4z M131.2,66.4
		l-55.1,55.1l-14.5-14.5l31.2-31.2L72.6,55.4l23.8-23.8L131.2,66.4z M61.2,55.4l20.3,20.3l-25.5,25.5L21.1,66.4l55.1-55.1l14.5,14.5
		L61.2,55.4z"/>
</g>
</svg>
